<?xml version="1.0" standalone="no"?>
<!DOCTYPE svg PUBLIC "-//W3C//DTD SVG 20010904//EN"
 "http://www.w3.org/TR/2001/REC-SVG-20010904/DTD/svg10.dtd">
<svg version="1.0" xmlns="http://www.w3.org/2000/svg"
 width="512.000000pt" height="512.000000pt" viewBox="0 0 512.000000 512.000000"
 preserveAspectRatio="xMidYMid meet">
<metadata>
Created by potrace 1.14, written by Peter Selinger 2001-2017
</metadata>
<g transform="translate(0.000000,512.000000) scale(0.100000,-0.100000)"
fill="#000000" stroke="none">
<path d="M175 5104 c-138 -50 -187 -259 -88 -370 62 -68 96 -77 298 -80 83 -1
153 -2 157 -3 6 -1 18 -37 34 -101 4 -17 5 -21 67 -250 60 -221 174 -633 192
-695 8 -27 46 -167 85 -310 38 -143 76 -282 85 -310 17 -60 66 -244 70 -265 2
-8 4 -15 5 -15 1 0 3 -7 5 -15 10 -37 92 -337 195 -710 61 -223 114 -416 116
-429 3 -14 7 -28 10 -33 3 -5 8 -21 10 -36 8 -45 70 -144 116 -187 63 -59 99
-82 169 -107 l64 -22 1159 -1 c672 -1 1180 2 1210 7 127 23 280 138 340 255
20 41 202 618 210 668 1 6 4 15 7 20 4 6 9 24 13 40 4 17 20 73 36 125 194
629 341 1140 344 1194 9 197 -108 371 -306 453 l-63 27 -1747 0 -1747 1 -11
40 c-14 55 -32 118 -75 265 -20 69 -43 150 -51 180 -8 30 -26 93 -40 140 -14
47 -32 110 -40 140 -30 108 -44 144 -75 191 -65 102 -182 181 -297 200 -93 15
-410 10 -457 -7z m4415 -1625 c0 -6 -54 -191 -121 -412 -209 -695 -399 -1331
-421 -1405 l-9 -32 -1107 2 -1107 3 -82 315 c-46 173 -104 394 -129 490 -25
96 -57 218 -71 270 -14 52 -26 102 -28 110 -2 8 -15 58 -29 110 -44 165 -146
554 -146 557 0 2 731 3 1625 3 1147 0 1625 -3 1625 -11z"/>
<path d="M1783 915 c-88 -24 -145 -57 -210 -121 -284 -278 -111 -755 287 -790
316 -28 565 271 485 581 -52 197 -234 340 -437 343 -40 1 -96 -5 -125 -13z"/>
<path d="M3630 911 c-133 -43 -233 -127 -287 -241 -154 -324 83 -681 441 -666
216 9 402 178 434 395 34 230 -117 457 -343 516 -77 20 -176 18 -245 -4z"/>
</g>
</svg>
